<?xml version="1.0" encoding="UTF-8" standalone="no"?><!-- Generator: Gravit.io --><svg xmlns="http://www.w3.org/2000/svg" xmlns:xlink="http://www.w3.org/1999/xlink" style="isolation:isolate" viewBox="0 0 20 20" width="20pt" height="20pt"><defs><clipPath id="_clipPath_D8hjeCuOoziMjqd57i8QgNCwjpy8tTar"><rect width="20" height="20"/></clipPath></defs><g clip-path="url(#_clipPath_D8hjeCuOoziMjqd57i8QgNCwjpy8tTar)"><g><g><rect x="0" y="6.25" width="4.473" height="13.75" transform="matrix(1,0,0,1,0,0)" fill="rgb(255,255,255)"/></g></g><g><g><path d=" M 16.655 6.411 C 16.607 6.396 16.563 6.38 16.513 6.366 C 16.453 6.353 16.393 6.341 16.331 6.331 C 16.094 6.284 15.834 6.25 15.529 6.25 C 12.921 6.25 11.267 8.146 10.723 8.879 L 10.723 6.25 L 6.25 6.25 L 6.25 20 L 10.723 20 L 10.723 12.5 C 10.723 12.5 14.103 7.793 15.529 11.25 C 15.529 14.336 15.529 20 15.529 20 L 20 20 L 20 10.721 C 20 8.644 18.576 6.913 16.655 6.411 Z " fill="rgb(255,255,255)"/></g></g><g><g><circle vector-effect="non-scaling-stroke" cx="2.1875" cy="2.1875" r="2.1875" fill="rgb(255,255,255)"/></g></g></g></svg>