<?xml version="1.0" encoding="UTF-8" standalone="no"?><!-- Generator: Gravit.io --><svg xmlns="http://www.w3.org/2000/svg" xmlns:xlink="http://www.w3.org/1999/xlink" style="isolation:isolate" viewBox="788.597 581.739 303.403 72.856" width="303.403pt" height="72.856pt"><path d=" M 812.181 654.388 L 812.181 654.388 L 812.181 654.388 Q 804.861 654.388 799.575 650.932 L 799.575 650.932 L 799.575 650.932 Q 794.289 647.476 791.443 641.41 L 791.443 641.41 L 791.443 641.41 Q 788.597 635.345 788.597 627.551 L 788.597 627.551 L 788.597 627.551 Q 788.597 619.622 791.528 613.54 L 791.528 613.54 L 791.528 613.54 Q 794.459 607.458 799.728 604.018 L 799.728 604.018 L 799.728 604.018 Q 804.997 600.579 812.045 600.579 L 812.045 600.579 L 812.045 600.579 Q 817.534 600.579 821.939 602.612 L 821.939 602.612 L 821.939 602.612 Q 826.345 604.645 829.157 608.305 L 829.157 608.305 L 829.157 608.305 Q 831.969 611.964 832.647 616.844 L 832.647 616.844 L 824.65 616.844 L 824.65 616.844 Q 823.735 613.286 820.601 610.524 L 820.601 610.524 L 820.601 610.524 Q 817.467 607.763 812.181 607.763 L 812.181 607.763 L 812.181 607.763 Q 807.504 607.763 803.997 610.185 L 803.997 610.185 L 803.997 610.185 Q 800.49 612.608 798.542 616.996 L 798.542 616.996 L 798.542 616.996 Q 796.593 621.384 796.593 627.28 L 796.593 627.28 L 796.593 627.28 Q 796.593 633.312 798.508 637.785 L 798.508 637.785 L 798.508 637.785 Q 800.422 642.258 803.93 644.731 L 803.93 644.731 L 803.93 644.731 Q 807.437 647.205 812.181 647.205 L 812.181 647.205 L 812.181 647.205 Q 815.298 647.205 817.839 646.12 L 817.839 646.12 L 817.839 646.12 Q 820.381 645.036 822.143 643.003 L 822.143 643.003 L 822.143 643.003 Q 823.905 640.97 824.65 638.124 L 824.65 638.124 L 832.647 638.124 L 832.647 638.124 Q 831.969 642.732 829.309 646.408 L 829.309 646.408 L 829.309 646.408 Q 826.65 650.085 822.295 652.237 L 822.295 652.237 L 822.295 652.237 Q 817.941 654.388 812.181 654.388 Z  M 838.047 583.907 L 846.043 583.907 L 846.043 653.304 L 838.047 653.304 L 838.047 583.907 Z  M 862.422 653.304 L 854.425 653.304 L 854.425 601.257 L 862.422 601.257 L 862.422 653.304 Z  M 858.491 592.582 L 858.491 592.582 L 858.491 592.582 Q 856.153 592.582 854.476 590.989 L 854.476 590.989 L 854.476 590.989 Q 852.798 589.397 852.798 587.16 L 852.798 587.16 L 852.798 587.16 Q 852.798 584.924 854.476 583.331 L 854.476 583.331 L 854.476 583.331 Q 856.153 581.739 858.491 581.739 L 858.491 581.739 L 858.491 581.739 Q 860.829 581.739 862.506 583.331 L 862.506 583.331 L 862.506 583.331 Q 864.184 584.924 864.184 587.16 L 864.184 587.16 L 864.184 587.16 Q 864.184 589.397 862.506 590.989 L 862.506 590.989 L 862.506 590.989 Q 860.829 592.582 858.491 592.582 Z  M 878.8 621.994 L 878.8 621.994 L 878.8 653.304 L 870.803 653.304 L 870.803 601.257 L 878.529 601.257 L 878.529 609.389 L 879.206 609.389 L 879.206 609.389 Q 881.036 605.424 884.763 603.002 L 884.763 603.002 L 884.763 603.002 Q 888.491 600.579 894.387 600.579 L 894.387 600.579 L 894.387 600.579 Q 899.673 600.579 903.637 602.731 L 903.637 602.731 L 903.637 602.731 Q 907.602 604.882 909.805 609.237 L 909.805 609.237 L 909.805 609.237 Q 912.007 613.591 912.007 620.232 L 912.007 620.232 L 912.007 653.304 L 904.01 653.304 L 904.01 620.774 L 904.01 620.774 Q 904.01 614.641 900.825 611.202 L 900.825 611.202 L 900.825 611.202 Q 897.64 607.763 892.083 607.763 L 892.083 607.763 L 892.083 607.763 Q 888.254 607.763 885.255 609.423 L 885.255 609.423 L 885.255 609.423 Q 882.256 611.083 880.528 614.268 L 880.528 614.268 L 880.528 614.268 Q 878.8 617.454 878.8 621.994 Z  M 928.385 653.304 L 920.388 653.304 L 920.388 601.257 L 928.385 601.257 L 928.385 653.304 Z  M 924.455 592.582 L 924.455 592.582 L 924.455 592.582 Q 922.116 592.582 920.439 590.989 L 920.439 590.989 L 920.439 590.989 Q 918.762 589.397 918.762 587.16 L 918.762 587.16 L 918.762 587.16 Q 918.762 584.924 920.439 583.331 L 920.439 583.331 L 920.439 583.331 Q 922.116 581.739 924.455 581.739 L 924.455 581.739 L 924.455 581.739 Q 926.793 581.739 928.47 583.331 L 928.47 583.331 L 928.47 583.331 Q 930.147 584.924 930.147 587.16 L 930.147 587.16 L 930.147 587.16 Q 930.147 589.397 928.47 590.989 L 928.47 590.989 L 928.47 590.989 Q 926.793 592.582 924.455 592.582 Z  M 957.911 654.388 L 957.911 654.388 L 957.911 654.388 Q 950.592 654.388 945.306 650.932 L 945.306 650.932 L 945.306 650.932 Q 940.019 647.476 937.173 641.41 L 937.173 641.41 L 937.173 641.41 Q 934.327 635.345 934.327 627.551 L 934.327 627.551 L 934.327 627.551 Q 934.327 619.622 937.258 613.54 L 937.258 613.54 L 937.258 613.54 Q 940.189 607.458 945.458 604.018 L 945.458 604.018 L 945.458 604.018 Q 950.727 600.579 957.775 600.579 L 957.775 600.579 L 957.775 600.579 Q 963.265 600.579 967.67 602.612 L 967.67 602.612 L 967.67 602.612 Q 972.075 604.645 974.887 608.305 L 974.887 608.305 L 974.887 608.305 Q 977.7 611.964 978.377 616.844 L 978.377 616.844 L 970.38 616.844 L 970.38 616.844 Q 969.466 613.286 966.331 610.524 L 966.331 610.524 L 966.331 610.524 Q 963.197 607.763 957.911 607.763 L 957.911 607.763 L 957.911 607.763 Q 953.235 607.763 949.727 610.185 L 949.727 610.185 L 949.727 610.185 Q 946.22 612.608 944.272 616.996 L 944.272 616.996 L 944.272 616.996 Q 942.324 621.384 942.324 627.28 L 942.324 627.28 L 942.324 627.28 Q 942.324 633.312 944.238 637.785 L 944.238 637.785 L 944.238 637.785 Q 946.153 642.258 949.66 644.731 L 949.66 644.731 L 949.66 644.731 Q 953.167 647.205 957.911 647.205 L 957.911 647.205 L 957.911 647.205 Q 961.028 647.205 963.57 646.12 L 963.57 646.12 L 963.57 646.12 Q 966.111 645.036 967.873 643.003 L 967.873 643.003 L 967.873 643.003 Q 969.635 640.97 970.38 638.124 L 970.38 638.124 L 978.377 638.124 L 978.377 638.124 Q 977.7 642.732 975.04 646.408 L 975.04 646.408 L 975.04 646.408 Q 972.38 650.085 968.025 652.237 L 968.025 652.237 L 968.025 652.237 Q 963.671 654.388 957.911 654.388 Z " fill="rgb(255,255,255)"/><path d=" M 1009.111 583.098 L 1009.111 583.098 L 1009.111 583.098 Q 1014.465 583.098 1019.429 584.876 L 1019.429 584.876 L 1019.429 584.876 Q 1024.393 586.655 1028.307 590.62 L 1028.307 590.62 L 1028.307 590.62 Q 1032.221 594.585 1034.508 601.107 L 1034.508 601.107 L 1034.508 601.107 Q 1036.795 607.63 1036.829 617.152 L 1036.829 617.152 L 1036.829 617.152 Q 1036.795 625.996 1034.813 632.925 L 1034.813 632.925 L 1034.813 632.925 Q 1032.831 639.855 1029.137 644.701 L 1029.137 644.701 L 1029.137 644.701 Q 1025.444 649.546 1020.242 652.071 L 1020.242 652.071 L 1020.242 652.071 Q 1015.041 654.595 1008.603 654.595 L 1008.603 654.595 L 1008.603 654.595 Q 1001.656 654.595 996.336 651.901 L 996.336 651.901 L 996.336 651.901 Q 991.016 649.207 987.78 644.548 L 987.78 644.548 L 987.78 644.548 Q 984.544 639.889 983.867 634.061 L 983.867 634.061 L 998.336 634.061 L 998.336 634.061 Q 999.183 637.856 1001.894 639.94 L 1001.894 639.94 L 1001.894 639.94 Q 1004.604 642.024 1008.603 642.024 L 1008.603 642.024 L 1008.603 642.024 Q 1015.38 642.024 1018.904 636.111 L 1018.904 636.111 L 1018.904 636.111 Q 1022.428 630.198 1022.462 619.897 L 1022.462 619.897 L 1021.987 619.897 L 1021.987 619.897 Q 1020.429 622.946 1017.786 625.132 L 1017.786 625.132 L 1017.786 625.132 Q 1015.143 627.318 1011.737 628.503 L 1011.737 628.503 L 1011.737 628.503 Q 1008.332 629.689 1004.503 629.689 L 1004.503 629.689 L 1004.503 629.689 Q 998.369 629.689 993.541 626.809 L 993.541 626.809 L 993.541 626.809 Q 988.712 623.929 985.934 618.863 L 985.934 618.863 L 985.934 618.863 Q 983.155 613.797 983.189 607.291 L 983.189 607.291 L 983.189 607.291 Q 983.155 600.243 986.408 594.771 L 986.408 594.771 L 986.408 594.771 Q 989.661 589.298 995.506 586.181 L 995.506 586.181 L 995.506 586.181 Q 1001.351 583.064 1009.111 583.098 Z  M 1009.213 594.618 L 1009.213 594.618 L 1009.213 594.618 Q 1005.79 594.618 1003.13 596.245 L 1003.13 596.245 L 1003.13 596.245 Q 1000.47 597.871 998.929 600.65 L 998.929 600.65 L 998.929 600.65 Q 997.387 603.429 997.421 606.885 L 997.421 606.885 L 997.421 606.885 Q 997.387 610.341 998.895 613.086 L 998.895 613.086 L 998.895 613.086 Q 1000.403 615.83 1003.046 617.44 L 1003.046 617.44 L 1003.046 617.44 Q 1005.689 619.05 1009.077 619.05 L 1009.077 619.05 L 1009.077 619.05 Q 1011.619 619.05 1013.77 618.101 L 1013.77 618.101 L 1013.77 618.101 Q 1015.922 617.152 1017.531 615.475 L 1017.531 615.475 L 1017.531 615.475 Q 1019.141 613.797 1020.056 611.578 L 1020.056 611.578 L 1020.056 611.578 Q 1020.971 609.358 1021.005 606.817 L 1021.005 606.817 L 1021.005 606.817 Q 1020.971 603.462 1019.446 600.684 L 1019.446 600.684 L 1019.446 600.684 Q 1017.921 597.905 1015.244 596.262 L 1015.244 596.262 L 1015.244 596.262 Q 1012.567 594.618 1009.213 594.618 Z  M 1064.282 583.098 L 1064.282 583.098 L 1064.282 583.098 Q 1069.636 583.098 1074.6 584.876 L 1074.6 584.876 L 1074.6 584.876 Q 1079.564 586.655 1083.478 590.62 L 1083.478 590.62 L 1083.478 590.62 Q 1087.392 594.585 1089.679 601.107 L 1089.679 601.107 L 1089.679 601.107 Q 1091.966 607.63 1092 617.152 L 1092 617.152 L 1092 617.152 Q 1091.966 625.996 1089.984 632.925 L 1089.984 632.925 L 1089.984 632.925 Q 1088.002 639.855 1084.308 644.701 L 1084.308 644.701 L 1084.308 644.701 Q 1080.615 649.546 1075.413 652.071 L 1075.413 652.071 L 1075.413 652.071 Q 1070.212 654.595 1063.774 654.595 L 1063.774 654.595 L 1063.774 654.595 Q 1056.827 654.595 1051.507 651.901 L 1051.507 651.901 L 1051.507 651.901 Q 1046.187 649.207 1042.951 644.548 L 1042.951 644.548 L 1042.951 644.548 Q 1039.715 639.889 1039.038 634.061 L 1039.038 634.061 L 1053.507 634.061 L 1053.507 634.061 Q 1054.354 637.856 1057.065 639.94 L 1057.065 639.94 L 1057.065 639.94 Q 1059.775 642.024 1063.774 642.024 L 1063.774 642.024 L 1063.774 642.024 Q 1070.551 642.024 1074.075 636.111 L 1074.075 636.111 L 1074.075 636.111 Q 1077.599 630.198 1077.633 619.897 L 1077.633 619.897 L 1077.158 619.897 L 1077.158 619.897 Q 1075.6 622.946 1072.957 625.132 L 1072.957 625.132 L 1072.957 625.132 Q 1070.314 627.318 1066.908 628.503 L 1066.908 628.503 L 1066.908 628.503 Q 1063.503 629.689 1059.674 629.689 L 1059.674 629.689 L 1059.674 629.689 Q 1053.54 629.689 1048.712 626.809 L 1048.712 626.809 L 1048.712 626.809 Q 1043.883 623.929 1041.105 618.863 L 1041.105 618.863 L 1041.105 618.863 Q 1038.326 613.797 1038.36 607.291 L 1038.36 607.291 L 1038.36 607.291 Q 1038.326 600.243 1041.579 594.771 L 1041.579 594.771 L 1041.579 594.771 Q 1044.832 589.298 1050.677 586.181 L 1050.677 586.181 L 1050.677 586.181 Q 1056.522 583.064 1064.282 583.098 Z  M 1064.384 594.618 L 1064.384 594.618 L 1064.384 594.618 Q 1060.961 594.618 1058.301 596.245 L 1058.301 596.245 L 1058.301 596.245 Q 1055.641 597.871 1054.1 600.65 L 1054.1 600.65 L 1054.1 600.65 Q 1052.558 603.429 1052.592 606.885 L 1052.592 606.885 L 1052.592 606.885 Q 1052.558 610.341 1054.066 613.086 L 1054.066 613.086 L 1054.066 613.086 Q 1055.574 615.83 1058.217 617.44 L 1058.217 617.44 L 1058.217 617.44 Q 1060.86 619.05 1064.248 619.05 L 1064.248 619.05 L 1064.248 619.05 Q 1066.79 619.05 1068.941 618.101 L 1068.941 618.101 L 1068.941 618.101 Q 1071.093 617.152 1072.702 615.475 L 1072.702 615.475 L 1072.702 615.475 Q 1074.312 613.797 1075.227 611.578 L 1075.227 611.578 L 1075.227 611.578 Q 1076.142 609.358 1076.176 606.817 L 1076.176 606.817 L 1076.176 606.817 Q 1076.142 603.462 1074.617 600.684 L 1074.617 600.684 L 1074.617 600.684 Q 1073.092 597.905 1070.415 596.262 L 1070.415 596.262 L 1070.415 596.262 Q 1067.738 594.618 1064.384 594.618 Z " fill="rgb(255,255,255)"/></svg>