<?xml version="1.0"?>
<svg xmlns="http://www.w3.org/2000/svg" id="Layer_1" enable-background="new 0 0 490.655 490.655" viewBox="0 0 490.655 490.655" width="512px" height="512px"><g><g><path d="m490.102 188.328c-1.323-3.84-4.693-6.613-8.704-7.147l-154.496-20.48-72.022-144.384c-3.584-7.232-15.509-7.232-19.093 0l-72.021 144.384-154.496 20.48c-4.011.533-7.403 3.307-8.704 7.147-1.301 3.84-.32 8.085 2.56 10.965l113.301 113.301-30.869 154.39c-.789 4.011.747 8.085 3.989 10.581 3.243 2.475 7.637 2.88 11.243 1.067l144.555-72.277 144.555 72.277c1.515.747 3.136 1.131 4.779 1.131 2.283 0 4.587-.747 6.485-2.197 3.221-2.475 4.779-6.571 3.989-10.581l-30.869-154.389 113.301-113.301c2.815-2.861 3.797-7.106 2.517-10.967z" fill="#FFFFFF"/></g></g><g/><g/><g/><g/><g/><g/><g/><g/><g/><g/><g/><g/><g/><g/><g/></svg>
